<?xml version="1.0" encoding="UTF-8" standalone="no"?>
<!-- Created with Inkscape (http://www.inkscape.org/) -->

<svg
   xmlns:dc="http://purl.org/dc/elements/1.1/"
   xmlns:cc="http://creativecommons.org/ns#"
   xmlns:rdf="http://www.w3.org/1999/02/22-rdf-syntax-ns#"
   xmlns:svg="http://www.w3.org/2000/svg"
   xmlns="http://www.w3.org/2000/svg"
   xmlns:sodipodi="http://sodipodi.sourceforge.net/DTD/sodipodi-0.dtd"
   xmlns:inkscape="http://www.inkscape.org/namespaces/inkscape"
   width="2000"
   height="400"
   viewBox="0 0 529.16665 105.83334"
   version="1.1"
   id="svg3749"
   inkscape:version="0.92.4 (5da689c313, 2019-01-14)"
   sodipodi:docname="logo.svg"
   inkscape:export-filename="/home/sk/logo.svg.png"
   inkscape:export-xdpi="96"
   inkscape:export-ydpi="96">
  <defs
     id="defs3743" />
  <sodipodi:namedview
     id="base"
     pagecolor="#ffffff"
     bordercolor="#666666"
     borderopacity="1.0"
     inkscape:pageopacity="0.0"
     inkscape:pageshadow="2"
     inkscape:zoom="0.34401912"
     inkscape:cx="833.24201"
     inkscape:cy="6.3076773"
     inkscape:document-units="px"
     inkscape:current-layer="layer1"
     showgrid="false"
     units="px"
     inkscape:pagecheckerboard="true"
     inkscape:window-width="1366"
     inkscape:window-height="704"
     inkscape:window-x="0"
     inkscape:window-y="27"
     inkscape:window-maximized="1"
     fit-margin-top="20"
     fit-margin-bottom="20"
     fit-margin-left="120"
     fit-margin-right="120" />
  <metadata
     id="metadata3746">
    <rdf:RDF>
      <cc:Work
         rdf:about="">
        <dc:format>image/svg+xml</dc:format>
        <dc:type
           rdf:resource="http://purl.org/dc/dcmitype/StillImage" />
        <dc:title />
      </cc:Work>
    </rdf:RDF>
  </metadata>
  <g
     inkscape:label="Layer 1"
     inkscape:groupmode="layer"
     id="layer1"
     transform="translate(-7.4885381,-184.49521)">
    <text
       xml:space="preserve"
       style="font-style:normal;font-weight:normal;font-size:70.55555725px;line-height:1.25;font-family:sans-serif;letter-spacing:0px;word-spacing:0px;fill:#000000;fill-opacity:1;stroke:none;stroke-width:0.26458335"
       x="26.458334"
       y="267.51785"
       id="text3753"><tspan
         sodipodi:role="line"
         id="tspan3751"
         x="26.458334"
         y="329.94299"
         style="font-size:70.55555725px;stroke-width:0.26458335" /></text>
    <g
       aria-label="ðš«iofant"
       style="font-style:normal;font-weight:normal;font-size:105.83333588px;line-height:1.25;font-family:sans-serif;letter-spacing:0px;word-spacing:0px;fill:#ffffff;fill-opacity:1;stroke:none;stroke-width:0.26458335"
       id="text3757">
      <path
         id="path25"
         style="font-style:normal;font-variant:normal;font-weight:normal;font-stretch:normal;font-size:105.83333588px;font-family:Lato;-inkscape-font-specification:Lato;fill:#ffffff;fill-opacity:1;stroke-width:0.26458335"
         d="m 433.02701,276.43791 q -6.35,0 -9.78958,-3.54541 -3.38667,-3.54542 -3.38667,-10.21292 v -32.80833 h -6.45583 q -0.84667,0 -1.42875,-0.47625 -0.58208,-0.52917 -0.58208,-1.5875 v -3.75709 l 8.78416,-1.11125 2.16959,-16.56291 q 0.15875,-0.79375 0.68791,-1.27 0.58209,-0.52917 1.48167,-0.52917 h 4.7625 V 223.045 h 15.50458 v 6.82625 h -15.50458 v 32.17333 q 0,3.38667 1.64042,5.02708 1.64041,1.64042 4.23333,1.64042 1.48167,0 2.54,-0.37042 1.11125,-0.42333 1.905,-0.89958 0.79375,-0.47625 1.32292,-0.84667 0.58208,-0.42333 1.00541,-0.42333 0.74084,0 1.32292,0.89958 l 2.75167,4.49792 q -2.43417,2.27542 -5.87375,3.59833 -3.43959,1.27 -7.09084,1.27 z m -74.74809,-0.84666 v -53.60459 h 5.66208 q 2.01083,0 2.48708,1.95792 l 0.74084,5.82083 q 3.4925,-3.86291 7.83166,-6.24416 4.33917,-2.38125 10.00125,-2.38125 4.39209,0 7.72584,1.48166 3.38666,1.42875 5.60916,4.1275 2.27542,2.64584 3.43959,6.40292 1.16416,3.75708 1.16416,8.30792 v 34.13125 H 393.4685 V 241.46 q 0,-6.08542 -2.80458,-9.41917 -2.75167,-3.38667 -8.41375,-3.38667 -4.23334,0 -7.88459,2.01084 -3.59833,2.01083 -6.61458,5.45041 v 39.47584 z m -18.42494,0 q -1.37583,0 -2.11666,-0.42334 -0.74084,-0.47625 -1.16417,-1.79916 l -1.05833,-5.02709 q -2.11667,1.905 -4.18042,3.43959 -2.01083,1.48166 -4.23333,2.54 -2.16959,1.00541 -4.70959,1.53458 -2.48708,0.58208 -5.55625,0.58208 -3.12208,0 -5.87375,-0.84666 -2.75166,-0.89959 -4.81541,-2.64584 -2.01084,-1.74625 -3.22792,-4.39208 -1.16417,-2.69875 -1.16417,-6.35 0,-3.175 1.74625,-6.08542 1.74625,-2.96333 5.66209,-5.23875 3.91583,-2.27541 10.21291,-3.70416 6.29709,-1.48167 15.45167,-1.69334 v -4.18041 q 0,-6.24417 -2.69875,-9.41917 -2.69875,-3.22792 -7.88458,-3.22792 -3.4925,0 -5.87375,0.89959 -2.32834,0.84666 -4.07459,1.95791 -1.69333,1.05834 -2.96333,1.95792 -1.21708,0.84667 -2.43417,0.84667 -0.9525,0 -1.64041,-0.47625 -0.68792,-0.52917 -1.16417,-1.27 l -1.69333,-3.01625 q 4.445,-4.28625 9.57791,-6.40292 5.13292,-2.11667 11.37709,-2.11667 4.49791,0 7.99041,1.48167 3.4925,1.48167 5.87375,4.1275 2.38125,2.64583 3.59834,6.40292 1.21708,3.75708 1.21708,8.255 v 34.29 z m -20.21416,-5.76792 q 2.48708,0 4.55083,-0.47625 2.06375,-0.52917 3.86292,-1.42875 1.85208,-0.9525 3.4925,-2.27542 1.69333,-1.37583 3.28083,-3.06916 v -11.1125 q -6.50875,0.21166 -11.1125,1.05833 -4.55083,0.79375 -7.46125,2.11667 -2.8575,1.32291 -4.18042,3.12208 -1.27,1.79917 -1.27,4.02167 0,2.11666 0.68792,3.65125 0.68792,1.53458 1.85208,2.54 1.21709,0.9525 2.80459,1.42875 1.64041,0.42333 3.4925,0.42333 z m -47.37199,5.76792 V 230.03 l -5.92667,-0.68792 q -1.11125,-0.26458 -1.85208,-0.79375 -0.68792,-0.58208 -0.68792,-1.64042 V 223.045 h 8.46667 v -5.18584 q 0,-4.60375 1.27,-8.14916 1.32292,-3.59834 3.70417,-6.0325 2.43416,-2.48709 5.82083,-3.75709 3.38667,-1.27 7.62,-1.27 3.59833,0 6.61458,1.05834 l -0.21166,4.70958 q -0.10584,1.27 -1.42875,1.37583 -1.27,0.10584 -3.43959,0.10584 -2.43416,0 -4.445,0.635 -1.95791,0.635 -3.38666,2.06375 -1.42875,1.42875 -2.2225,3.75708 -0.74084,2.32833 -0.74084,5.76792 v 4.92125 h 15.45167 v 6.82625 h -15.13417 v 45.72 z M 232.66632,221.14 q 5.87375,0 10.58333,1.95791 4.70958,1.95792 8.04333,5.55625 3.33375,3.59834 5.08,8.73125 1.79917,5.08 1.79917,11.37709 0,6.35 -1.79917,11.43 -1.74625,5.08 -5.08,8.67833 -3.33375,3.59833 -8.04333,5.55625 -4.70958,1.905 -10.58333,1.905 -5.92667,0 -10.68917,-1.905 -4.70958,-1.95792 -8.04333,-5.55625 -3.33375,-3.59833 -5.13292,-8.67833 -1.74625,-5.08 -1.74625,-11.43 0,-6.29709 1.74625,-11.37709 1.79917,-5.13291 5.13292,-8.73125 3.33375,-3.59833 8.04333,-5.55625 4.7625,-1.95791 10.68917,-1.95791 z m 0,47.83666 q 7.9375,0 11.85333,-5.29166 3.91583,-5.34459 3.91583,-14.86959 0,-9.57791 -3.91583,-14.9225 -3.91583,-5.34458 -11.85333,-5.34458 -4.02167,0 -7.03792,1.37583 -2.96333,1.37584 -4.97417,3.96875 -1.95791,2.59292 -2.96333,6.40292 -0.9525,3.75708 -0.9525,8.51958 0,9.525 3.91583,14.86959 3.96875,5.29166 12.01209,5.29166 z m -38.07189,-46.99 v 53.60459 h -9.41917 v -53.60459 z m 2.01083,-16.8275 q 0,1.37584 -0.58208,2.59292 -0.52917,1.16417 -1.48167,2.11667 -0.89958,0.89958 -2.16958,1.42875 -1.21708,0.52916 -2.59292,0.52916 -1.37583,0 -2.59291,-0.52916 -1.16417,-0.52917 -2.06375,-1.42875 -0.89959,-0.9525 -1.42875,-2.11667 -0.52917,-1.21708 -0.52917,-2.59292 0,-1.37583 0.52917,-2.59291 0.52916,-1.27 1.42875,-2.16959 0.89958,-0.9525 2.06375,-1.48166 1.21708,-0.52917 2.59291,-0.52917 1.37584,0 2.59292,0.52917 1.27,0.52916 2.16958,1.48166 0.9525,0.89959 1.48167,2.16959 0.58208,1.21708 0.58208,2.59291 z m -20.87728,70.43209 -36.72417,-73.025 h -3.59833 l -37.253333,73.025 z m -19.57916,-4.23334 h -51.22334 l 25.7175,-50.58833 z" />
    </g>
    <text
       xml:space="preserve"
       style="font-style:normal;font-weight:normal;font-size:50.80000305px;line-height:1.25;font-family:sans-serif;letter-spacing:0px;word-spacing:0px;fill:#000000;fill-opacity:1;stroke:none;stroke-width:0.26458335"
       x="174.76668"
       y="312.92487"
       id="text825"><tspan
         sodipodi:role="line"
         id="tspan823"
         x="174.76668"
         y="357.87097"
         style="stroke-width:0.26458335" /></text>
  </g>
</svg>
